<?xml version="1.0" encoding="utf-8"?>
<svg xmlns="http://www.w3.org/2000/svg" xmlns:xlink="http://www.w3.org/1999/xlink" width="600" height="400" viewBox="0 0 2400 1600">
<defs>
  <clipPath id="clip9700">
    <rect x="0" y="0" width="2400" height="1600"/>
  </clipPath>
</defs>
<polygon clip-path="url(#clip9700)" points="
0,1600 2400,1600 2400,0 0,0 
  " fill="#ffffff" fill-rule="evenodd" fill-opacity="1"/>
<defs>
  <clipPath id="clip9701">
    <rect x="480" y="0" width="1681" height="1600"/>
  </clipPath>
</defs>
<polygon clip-path="url(#clip9700)" points="
157.48,1474.02 2321.26,1474.02 2321.26,47.2441 157.48,47.2441 
  " fill="#ffffff" fill-rule="evenodd" fill-opacity="1"/>
<defs>
  <clipPath id="clip9702">
    <rect x="157" y="47" width="2165" height="1428"/>
  </clipPath>
</defs>
<polyline clip-path="url(#clip9702)" style="stroke:#000000; stroke-width:2; stroke-opacity:0.1; fill:none" points="
  573.728,1474.02 573.728,47.2441 
  "/>
<polyline clip-path="url(#clip9702)" style="stroke:#000000; stroke-width:2; stroke-opacity:0.1; fill:none" points="
  1017.49,1474.02 1017.49,47.2441 
  "/>
<polyline clip-path="url(#clip9702)" style="stroke:#000000; stroke-width:2; stroke-opacity:0.1; fill:none" points="
  1461.25,1474.02 1461.25,47.2441 
  "/>
<polyline clip-path="url(#clip9702)" style="stroke:#000000; stroke-width:2; stroke-opacity:0.1; fill:none" points="
  1905.01,1474.02 1905.01,47.2441 
  "/>
<polyline clip-path="url(#clip9702)" style="stroke:#000000; stroke-width:2; stroke-opacity:0.1; fill:none" points="
  157.48,1433.64 2321.26,1433.64 
  "/>
<polyline clip-path="url(#clip9702)" style="stroke:#000000; stroke-width:2; stroke-opacity:0.1; fill:none" points="
  157.48,1184.39 2321.26,1184.39 
  "/>
<polyline clip-path="url(#clip9702)" style="stroke:#000000; stroke-width:2; stroke-opacity:0.1; fill:none" points="
  157.48,935.135 2321.26,935.135 
  "/>
<polyline clip-path="url(#clip9702)" style="stroke:#000000; stroke-width:2; stroke-opacity:0.1; fill:none" points="
  157.48,685.885 2321.26,685.885 
  "/>
<polyline clip-path="url(#clip9702)" style="stroke:#000000; stroke-width:2; stroke-opacity:0.1; fill:none" points="
  157.48,436.635 2321.26,436.635 
  "/>
<polyline clip-path="url(#clip9702)" style="stroke:#000000; stroke-width:2; stroke-opacity:0.1; fill:none" points="
  157.48,187.385 2321.26,187.385 
  "/>
<polyline clip-path="url(#clip9700)" style="stroke:#000000; stroke-width:4; stroke-opacity:1; fill:none" points="
  157.48,1474.02 2321.26,1474.02 
  "/>
<polyline clip-path="url(#clip9700)" style="stroke:#000000; stroke-width:4; stroke-opacity:1; fill:none" points="
  157.48,1474.02 157.48,47.2441 
  "/>
<polyline clip-path="url(#clip9700)" style="stroke:#000000; stroke-width:4; stroke-opacity:1; fill:none" points="
  573.728,1474.02 573.728,1452.61 
  "/>
<polyline clip-path="url(#clip9700)" style="stroke:#000000; stroke-width:4; stroke-opacity:1; fill:none" points="
  1017.49,1474.02 1017.49,1452.61 
  "/>
<polyline clip-path="url(#clip9700)" style="stroke:#000000; stroke-width:4; stroke-opacity:1; fill:none" points="
  1461.25,1474.02 1461.25,1452.61 
  "/>
<polyline clip-path="url(#clip9700)" style="stroke:#000000; stroke-width:4; stroke-opacity:1; fill:none" points="
  1905.01,1474.02 1905.01,1452.61 
  "/>
<polyline clip-path="url(#clip9700)" style="stroke:#000000; stroke-width:4; stroke-opacity:1; fill:none" points="
  157.48,1433.64 189.937,1433.64 
  "/>
<polyline clip-path="url(#clip9700)" style="stroke:#000000; stroke-width:4; stroke-opacity:1; fill:none" points="
  157.48,1184.39 189.937,1184.39 
  "/>
<polyline clip-path="url(#clip9700)" style="stroke:#000000; stroke-width:4; stroke-opacity:1; fill:none" points="
  157.48,935.135 189.937,935.135 
  "/>
<polyline clip-path="url(#clip9700)" style="stroke:#000000; stroke-width:4; stroke-opacity:1; fill:none" points="
  157.48,685.885 189.937,685.885 
  "/>
<polyline clip-path="url(#clip9700)" style="stroke:#000000; stroke-width:4; stroke-opacity:1; fill:none" points="
  157.48,436.635 189.937,436.635 
  "/>
<polyline clip-path="url(#clip9700)" style="stroke:#000000; stroke-width:4; stroke-opacity:1; fill:none" points="
  157.48,187.385 189.937,187.385 
  "/>
<g clip-path="url(#clip9700)">
<text style="fill:#000000; fill-opacity:1; font-family:Arial,Helvetica Neue,Helvetica,sans-serif; font-size:48px; text-anchor:middle;" transform="rotate(0, 573.728, 1528.02)" x="573.728" y="1528.02">5</text>
</g>
<g clip-path="url(#clip9700)">
<text style="fill:#000000; fill-opacity:1; font-family:Arial,Helvetica Neue,Helvetica,sans-serif; font-size:48px; text-anchor:middle;" transform="rotate(0, 1017.49, 1528.02)" x="1017.49" y="1528.02">10</text>
</g>
<g clip-path="url(#clip9700)">
<text style="fill:#000000; fill-opacity:1; font-family:Arial,Helvetica Neue,Helvetica,sans-serif; font-size:48px; text-anchor:middle;" transform="rotate(0, 1461.25, 1528.02)" x="1461.25" y="1528.02">15</text>
</g>
<g clip-path="url(#clip9700)">
<text style="fill:#000000; fill-opacity:1; font-family:Arial,Helvetica Neue,Helvetica,sans-serif; font-size:48px; text-anchor:middle;" transform="rotate(0, 1905.01, 1528.02)" x="1905.01" y="1528.02">20</text>
</g>
<g clip-path="url(#clip9700)">
<text style="fill:#000000; fill-opacity:1; font-family:Arial,Helvetica Neue,Helvetica,sans-serif; font-size:48px; text-anchor:end;" transform="rotate(0, 133.48, 1451.14)" x="133.48" y="1451.14">0.0</text>
</g>
<g clip-path="url(#clip9700)">
<text style="fill:#000000; fill-opacity:1; font-family:Arial,Helvetica Neue,Helvetica,sans-serif; font-size:48px; text-anchor:end;" transform="rotate(0, 133.48, 1201.89)" x="133.48" y="1201.89">0.1</text>
</g>
<g clip-path="url(#clip9700)">
<text style="fill:#000000; fill-opacity:1; font-family:Arial,Helvetica Neue,Helvetica,sans-serif; font-size:48px; text-anchor:end;" transform="rotate(0, 133.48, 952.635)" x="133.48" y="952.635">0.2</text>
</g>
<g clip-path="url(#clip9700)">
<text style="fill:#000000; fill-opacity:1; font-family:Arial,Helvetica Neue,Helvetica,sans-serif; font-size:48px; text-anchor:end;" transform="rotate(0, 133.48, 703.385)" x="133.48" y="703.385">0.3</text>
</g>
<g clip-path="url(#clip9700)">
<text style="fill:#000000; fill-opacity:1; font-family:Arial,Helvetica Neue,Helvetica,sans-serif; font-size:48px; text-anchor:end;" transform="rotate(0, 133.48, 454.135)" x="133.48" y="454.135">0.4</text>
</g>
<g clip-path="url(#clip9700)">
<text style="fill:#000000; fill-opacity:1; font-family:Arial,Helvetica Neue,Helvetica,sans-serif; font-size:48px; text-anchor:end;" transform="rotate(0, 133.48, 204.885)" x="133.48" y="204.885">0.5</text>
</g>
<g clip-path="url(#clip9700)">
<text style="fill:#000000; fill-opacity:1; font-family:Arial,Helvetica Neue,Helvetica,sans-serif; font-size:66px; text-anchor:middle;" transform="rotate(0, 1239.37, 1590.4)" x="1239.37" y="1590.4">Time [h]</text>
</g>
<g clip-path="url(#clip9700)">
<text style="fill:#000000; fill-opacity:1; font-family:Arial,Helvetica Neue,Helvetica,sans-serif; font-size:66px; text-anchor:middle;" transform="rotate(-90, 57.6, 760.63)" x="57.6" y="760.63">Solar availability factor [%]</text>
</g>
<polyline clip-path="url(#clip9702)" style="stroke:#009af9; stroke-width:12; stroke-opacity:1; fill:none" points="
  218.719,1433.64 307.472,1433.64 396.224,1433.64 484.976,1430.93 573.728,1384.88 662.481,1234.28 751.233,970.239 839.985,662.246 928.737,388.699 1017.49,195.049 
  1106.24,94.2029 1194.99,87.6244 1283.75,169.276 1372.5,331.569 1461.25,563.243 1550,841.895 1638.76,1115.05 1727.51,1318.7 1816.26,1413.71 1905.01,1433.42 
  1993.76,1433.64 2082.52,1433.64 2171.27,1433.64 2260.02,1433.64 
  "/>
<polyline clip-path="url(#clip9702)" style="stroke:#e26f46; stroke-width:12; stroke-opacity:1; fill:none" points="
  218.719,1433.64 307.472,1433.64 396.224,1433.64 484.976,1433.64 573.728,1433.64 662.481,1431.54 751.233,1417.68 839.985,1350.91 928.737,1218.4 1017.49,1080.84 
  1106.24,982.786 1194.99,962.027 1283.75,1019.56 1372.5,1138.25 1461.25,1288.08 1550,1398.5 1638.76,1425.95 1727.51,1433.48 1816.26,1433.64 1905.01,1433.64 
  1993.76,1433.64 2082.52,1433.64 2171.27,1433.64 2260.02,1433.64 
  "/>
<polyline clip-path="url(#clip9702)" style="stroke:#3da44d; stroke-width:12; stroke-opacity:1; fill:none" points="
  218.719,1433.64 307.472,1433.64 396.224,1433.64 484.976,1432.02 573.728,1401.05 662.481,1303.23 751.233,1126.83 839.985,897.501 928.737,656.93 1017.49,462.512 
  1106.24,349.793 1194.99,333.485 1283.75,405.148 1372.5,558.075 1461.25,776.242 1550,1019.12 1638.76,1223.17 1727.51,1357.43 1816.26,1420.95 1905.01,1433.53 
  1993.76,1433.64 2082.52,1433.64 2171.27,1433.64 2260.02,1433.64 
  "/>
<polyline clip-path="url(#clip9702)" style="stroke:#c271d2; stroke-width:12; stroke-opacity:1; fill:none" points="
  218.719,1433.64 307.472,1433.64 396.224,1433.64 484.976,1433.62 573.728,1433.1 662.481,1431.48 751.233,1409.89 839.985,1301 928.737,1075.8 1017.49,842.716 
  1106.24,699.039 1194.99,668.041 1283.75,737.986 1372.5,902.378 1461.25,1133.75 1550,1344.95 1638.76,1420.42 1727.51,1431.86 1816.26,1433.31 1905.01,1433.64 
  1993.76,1433.64 2082.52,1433.64 2171.27,1433.64 2260.02,1433.64 
  "/>
<polyline clip-path="url(#clip9702)" style="stroke:#ac8d18; stroke-width:12; stroke-opacity:1; fill:none" points="
  218.719,1433.64 307.472,1433.64 396.224,1433.64 484.976,1433.06 573.728,1416.07 662.481,1356.62 751.233,1245.3 839.985,1081.98 928.737,891.72 1017.49,725.481 
  1106.24,622.874 1194.99,602.206 1283.75,660.507 1372.5,793.07 1461.25,978.746 1550,1169.15 1638.76,1307.79 1727.51,1390.53 1816.26,1426.94 1905.01,1433.58 
  1993.76,1433.64 2082.52,1433.64 2171.27,1433.64 2260.02,1433.64 
  "/>
</svg>
